<?xml version="1.0" encoding="UTF-8" standalone="no"?>
<!-- Created with Inkscape (http://www.inkscape.org/) -->

<svg
   xmlns:dc="http://purl.org/dc/elements/1.1/"
   xmlns:cc="http://creativecommons.org/ns#"
   xmlns:rdf="http://www.w3.org/1999/02/22-rdf-syntax-ns#"
   xmlns:svg="http://www.w3.org/2000/svg"
   xmlns="http://www.w3.org/2000/svg"
   xmlns:sodipodi="http://sodipodi.sourceforge.net/DTD/sodipodi-0.dtd"
   xmlns:inkscape="http://www.inkscape.org/namespaces/inkscape"
   width="18"
   height="18"
   viewBox="0 0 4.7625 4.7625"
   version="1.1"
   id="svg8"
   inkscape:version="0.92.2 (5c3e80d, 2017-08-06)"
   sodipodi:docname="icon.svg">
  <defs
     id="defs2" />
  <sodipodi:namedview
     id="base"
     pagecolor="#ffffff"
     bordercolor="#666666"
     borderopacity="1.0"
     inkscape:pageopacity="0.0"
     inkscape:pageshadow="2"
     inkscape:zoom="29.166667"
     inkscape:cx="11.259591"
     inkscape:cy="9.5727643"
     inkscape:document-units="mm"
     inkscape:current-layer="layer1"
     showgrid="false"
     inkscape:window-width="1536"
     inkscape:window-height="960"
     inkscape:window-x="0"
     inkscape:window-y="0"
     inkscape:window-maximized="0"
     units="px"
     width="18px"
     inkscape:snap-grids="true" />
  <metadata
     id="metadata5">
    <rdf:RDF>
      <cc:Work
         rdf:about="">
        <dc:format>image/svg+xml</dc:format>
        <dc:type
           rdf:resource="http://purl.org/dc/dcmitype/StillImage" />
        <dc:title></dc:title>
      </cc:Work>
    </rdf:RDF>
  </metadata>
  <g
     inkscape:label="Layer 1"
     inkscape:groupmode="layer"
     id="layer1"
     transform="translate(0,-292.2375)">
    <path
       fill="currentColor"
       d="m 2.3789062,292.22266 c -0.233348,0 -0.532024,-0.003 -0.8144531,0.16015 -0.2791526,0.16195 -0.4140625,0.41602 -0.4140625,0.41602 a 0.27657285,0.27657285 0 1 0 0.4804688,0.27148 c 0,0 0.086093,-0.13655 0.2109375,-0.20898 0.1215245,-0.0704 0.3134432,-0.0859 0.5371093,-0.0859 0.2231338,0 0.4150586,0.0176 0.5371094,0.0879 0.1238896,0.0727 0.2089844,0.20703 0.2089844,0.20703 a 0.27678163,0.27678163 0 1 0 0.4824219,-0.27148 c 0,0 -0.1349088,-0.25407 -0.4140625,-0.41602 h -0.00195 c -0.2819031,-0.16229 -0.5786193,-0.16015 -0.8125,-0.16015 z m 0,1.06054 -0.9648437,0.004 -0.53515625,0.008 c -0.18218847,7.3e-4 -0.44275627,-4.6e-4 -0.65820313,0.19922 C 0.03001692,293.6709 0,293.91804 0,294.06836 v 2.19531 c 0,0.16315 0.04770812,0.39381 0.22460938,0.55274 0.20260404,0.18171 0.44687428,0.17968 0.66601562,0.17968 h 0.4316406 a 0.27657285,0.27657285 0 0 0 0.095703,0 h 0.9609374 0.9550782 a 0.27657285,0.27657285 0 0 0 0.095703,0 h 0.4375 c 0.2193689,0 0.4635277,0.001 0.6660156,-0.17968 0.1769343,-0.15893 0.2246094,-0.38959 0.2246094,-0.55274 v -2.19531 c 0,-0.15036 -0.030061,-0.39746 -0.2207031,-0.57422 -0.2154018,-0.19966 -0.4758389,-0.19858 -0.6582032,-0.19922 l -0.5351562,-0.008 z m 0,0.55274 0.7363282,0.004 -0.00781,2.60352 H 2.3789062 1.6484375 l -0.00781,-2.60352 z m -1.2910156,0.008 0.00781,2.59961 H 0.890625 c -0.2020894,0 -0.27871515,-0.0228 -0.296875,-0.0391 -0.0435391,-0.0391 -0.0410156,-0.0395 -0.0410156,-0.14063 v -2.19531 c 0,-0.11292 -0.002562,-0.12395 0.0449219,-0.16797 0.0216164,-0.02 0.13706576,-0.0521 0.28710937,-0.0527 z m 2.5800782,0 0.203125,0.004 h 0.00195 c 0.149865,5.4e-4 0.2654478,0.0326 0.2871093,0.0527 0.047481,0.044 0.044922,0.0551 0.044922,0.16797 v 2.19531 c 0,0.10116 0.00249,0.10155 -0.041016,0.14063 -0.018276,0.0164 -0.095013,0.0391 -0.296875,0.0391 H 3.6621094 Z" />
  </g>
</svg>
