<?xml version="1.0" encoding="UTF-8" standalone="no"?>
<!-- Created with Inkscape (http://www.inkscape.org/) -->

<svg
   xmlns:dc="http://purl.org/dc/elements/1.1/"
   xmlns:cc="http://creativecommons.org/ns#"
   xmlns:rdf="http://www.w3.org/1999/02/22-rdf-syntax-ns#"
   xmlns:svg="http://www.w3.org/2000/svg"
   xmlns="http://www.w3.org/2000/svg"
   xmlns:sodipodi="http://sodipodi.sourceforge.net/DTD/sodipodi-0.dtd"
   xmlns:inkscape="http://www.inkscape.org/namespaces/inkscape"
   width="210mm"
   height="297mm"
   viewBox="0 0 210 297"
   version="1.1"
   id="svg8"
   inkscape:version="0.92.2 (5c3e80d, 2017-08-06)"
   sodipodi:docname="icon.svg">
  <defs
     id="defs2" />
  <sodipodi:namedview
     id="base"
     pagecolor="#ffffff"
     bordercolor="#666666"
     borderopacity="1.0"
     inkscape:pageopacity="0.0"
     inkscape:pageshadow="2"
     inkscape:zoom="33.169396"
     inkscape:cx="12.302825"
     inkscape:cy="1121.1814"
     inkscape:document-units="mm"
     inkscape:current-layer="layer1"
     showgrid="false"
     inkscape:window-width="2048"
     inkscape:window-height="1280"
     inkscape:window-x="0"
     inkscape:window-y="0"
     inkscape:window-maximized="0" />
  <metadata
     id="metadata5">
    <rdf:RDF>
      <cc:Work
         rdf:about="">
        <dc:format>image/svg+xml</dc:format>
        <dc:type
           rdf:resource="http://purl.org/dc/dcmitype/StillImage" />
        <dc:title></dc:title>
      </cc:Work>
    </rdf:RDF>
  </metadata>
  <g
     inkscape:label="Layer 1"
     inkscape:groupmode="layer"
     id="layer1">
    <path
       id="path5661"
       style="fill:none;stroke:#000000;stroke-width:0.546;stroke-linecap:round;stroke-linejoin:miter;stroke-miterlimit:4;stroke-dasharray:none;stroke-opacity:1"
       d="m 3.1392579,0.73129135 v 0 c 0,0 -0.10185,-0.20427 -0.28915,-0.32744 -0.18728,-0.1222 -0.41467,-0.1292 -0.62655,-0.1292 -0.21188,0 -0.43927,0.007 -0.62655,0.1292 -0.1873,0.12317 -0.28915,0.32744 -0.28915,0.32744 v 0 m 2.29593,3.97828005 c 0.19529,0 0.34372,-0.0102 0.44607,-0.11429 0.1022,-0.10407 0.1228,-0.22683 0.1228,-0.36571 v -2.30572 c 0,-0.13833 -0.0124,-0.27456 -0.1228,-0.39058 -0.11045,-0.11605 -0.28552,-0.13222 -0.43961,-0.13285 l -0.49455,-0.008 -0.89214,-0.003 -0.89214,0.003 -0.49454997,0.008 c -0.15409,6.3e-4 -0.32916,0.0168 -0.43961,0.13285 -0.11042,0.11602 -0.1228,0.25225 -0.1228,0.39058 v 2.30572 c 0,0.13888 0.0206,0.26164 0.1228,0.36571 0.10235,0.10412 0.25078,0.11429 0.44607,0.11429 H 2.2235579 Z m -0.44022,-3.30918 -0.007,3.30918 m -1.87302,-3.30918 0.007,3.30918"
       inkscape:connector-curvature="0"
       sodipodi:nodetypes="cccccccscsscccccccsscscscccc" />
  </g>
</svg>
